<svg width="1000" height="250" xmlns="http://www.w3.org/2000/svg">
    <rect width="1000" height="250" fill="#ffffff" />
    <g transform="translate(204, 52)">
        <svg width="591" height="146" viewBox="0 0 591 146" fill="none" xmlns="http://www.w3.org/2000/svg">
            <path
                d="M112.134 145.836H35.422C16.3994 145.836 0.951263 130.388 0.951263 111.365V34.653C0.951263 15.5993 16.3683 0.182312 35.422 0.182312H112.165C131.188 0.182312 146.636 15.6304 146.636 34.653V111.396C146.605 130.419 131.188 145.836 112.134 145.836Z"
                fill="#5CC7C7" />
            <path
                d="M231.927 43.9156V82.5825C231.927 92.4979 223.876 100.548 213.961 100.548C204.046 100.548 195.995 92.4979 195.995 82.5825V43.9156H179.521V80.2824C179.521 99.305 194.938 114.722 213.961 114.722C232.984 114.722 248.401 99.305 248.401 80.2824V43.9156H231.927Z"
                fill="#152D49" />
            <path
                d="M278.395 112.795V74.128C278.395 64.2126 286.446 56.1622 296.361 56.1622C306.276 56.1622 314.327 64.2126 314.327 74.128V112.795H330.801V76.4281C330.801 57.4055 315.384 41.9885 296.361 41.9885C277.338 41.9885 261.921 57.4055 261.921 76.4281V112.795H278.395Z"
                fill="#152D49" />
            <path d="M364.246 43.9156H347.772V112.764H364.246V43.9156Z" fill="#152D49" />
            <path
                d="M76.389 22.7794C82.4812 21.1631 88.5734 22.0024 94.2615 25.2971C107.441 32.9124 108.218 50.5052 96.2819 71.2062C92.6141 77.5471 87.7341 85.5043 82.3568 90.9437C73.2807 100.082 65.8519 98.8387 61.2206 96.1656C54.4757 92.2803 52.3621 85.8462 54.9419 77.0498C56.838 70.5846 61.749 62.845 69.0535 50.1943L78.8134 55.8203C72.0996 67.4452 67.3128 74.8429 65.7587 80.1891C64.36 84.9448 65.51 85.6286 66.8466 86.3746C71.8198 89.2653 81.3 74.5632 86.4908 65.5492C90.687 58.3069 93.1115 51.2201 93.3601 45.6252C93.702 38.0099 89.8478 35.772 88.6045 35.0571C84.657 32.788 80.7095 32.6637 76.4822 34.7463C70.6387 37.6059 64.3911 44.5684 58.4232 54.9189C51.958 66.1087 44.9333 78.8837 43.1927 89.172C41.5764 98.6212 44.436 104.682 52.704 109.469C62.2774 115.002 70.8252 113.51 80.4297 104.62C89.4748 96.2589 98.2712 84.4475 106.259 70.6157L116.019 76.2416C107.565 90.8505 98.2712 103.439 88.0761 112.888C74.8038 125.166 61.003 127.31 47.0469 119.229C34.676 112.08 29.6406 101.325 32.0651 87.2449C34.1476 75.1227 41.7007 61.2909 48.6632 49.2619C55.8744 36.7666 63.5829 28.4676 71.5712 24.5822C73.1875 23.8362 74.7727 23.2146 76.389 22.7794Z"
                fill="white" />
            <path
                d="M577.411 75.3402C577.411 75.3402 565.351 99.9577 542.847 99.9577C540.733 99.9577 538.806 99.7712 537.034 99.3982C550.555 90.4775 561.683 78.1688 561.683 63.9018C561.683 50.5052 550.369 42.1129 537.065 42.1129C522.363 42.1129 505.361 54.3905 505.361 78.8837C505.361 86.6854 507.381 92.9641 510.552 97.9374C505.423 100.051 500.605 101.294 496.813 101.294C490.752 101.294 489.385 96.1346 489.385 89.6694C489.385 83.2042 489.385 72.0144 489.385 72.0144C489.385 54.1419 479.469 42.1129 463.772 42.1129C455.225 42.1129 448.355 47.3658 443.848 54.0486C439.528 46.5266 432.068 42.1129 422.432 42.1129C413.077 42.1129 405.741 48.3916 401.296 55.9446C399.12 50.0389 393.215 43.9778 377.363 43.9778V59.1151H379.383C385.226 59.1151 391.443 60.7003 391.443 69.5899C391.443 72.9158 391.443 112.95 391.443 112.95H406.705V71.859C407.047 63.3423 410.994 57.3434 419.728 57.3434C428.929 57.3434 432.783 63.9329 432.783 73.1645L432.721 112.857H448.013C448.013 112.857 448.013 90.8194 448.013 73.1645C448.013 63.9329 451.899 57.3434 461.068 57.3434C470.269 57.3434 474.123 64.337 474.123 73.5374C474.123 82.4893 474.123 92.2803 474.123 95.917C474.123 99.5536 476.951 114.753 495.508 114.753C501.569 114.753 510.987 112.36 520.84 108.101C528.331 112.919 536.941 114.753 542.816 114.753C574.302 114.753 590.652 82.8312 590.652 82.8312L577.411 75.3402ZM520.56 79.6607C520.56 67.7872 527.492 57.2812 537.967 57.2812C545.209 57.2812 546.515 63.3734 546.515 65.3005C546.515 72.978 536.04 83.2974 524.011 90.9127C521.555 87.2138 520.56 83.0488 520.56 79.6607Z"
                fill="#5CC7C7" />
        </svg>
    </g>
</svg>