<svg width="138" height="32" viewBox="0 0 138 32" fill="none" xmlns="http://www.w3.org/2000/svg">
    <g clip-path="url(#clip0_812_7180)">
        <path
            d="M19.5003 30.7579H12.7837V1.24192C12.898 1.23544 13.0187 1.22572 13.1394 1.22572C16.1245 1.22572 19.1097 1.22572 22.0949 1.21924C22.3394 1.21924 22.4791 1.27432 22.5871 1.52059C25.4389 7.95583 28.297 14.3878 31.1552 20.8231C31.3362 21.2281 31.4981 21.6429 31.7014 22.1322V1.25164H38.3989V30.7546C38.2529 30.7611 38.1163 30.7773 37.9829 30.7773C35.1121 30.7773 32.2413 30.7708 29.3704 30.787C29.0528 30.787 28.9068 30.6769 28.7766 30.3949C26.4234 25.1781 24.0638 19.9612 21.6947 14.7508C20.9802 13.1824 20.2307 11.6336 19.5003 10.075V30.7579Z"
            fill="#34363C" />
        <path
            d="M71.023 10.7459C70.3783 10.7459 69.8448 10.7459 69.3144 10.7459C67.6123 10.7459 65.9101 10.7427 64.2079 10.7524C63.9507 10.7524 63.8046 10.7006 63.6998 10.4251C62.7312 7.86206 60.8416 6.68259 58.1963 6.62102C56.3099 6.57566 54.5315 6.91589 52.9564 8.03055C51.251 9.23595 50.2824 10.9533 49.8347 12.9753C49.2535 15.5999 49.3234 18.2084 50.3459 20.7163C51.4733 23.4803 53.6074 24.932 56.4687 25.3111C58.0057 25.5152 59.5364 25.4569 61.029 24.9871C63.3409 24.258 64.5286 22.5504 64.9669 20.2076C64.9796 20.1461 64.9669 20.0812 64.9669 19.9711H57.3642V14.7056H70.7276C70.6069 20.0586 70.4863 25.3953 70.3624 30.7548H66.0244C65.9323 29.6434 65.837 28.5417 65.7418 27.4076C65.6751 27.4562 65.637 27.4724 65.6211 27.4983C64.4556 29.4749 62.6931 30.609 60.5368 31.0756C55.9542 32.0671 51.6924 31.3705 47.9673 28.3149C45.2966 26.1244 43.6547 23.2438 42.918 19.8512C41.9652 15.4509 42.4765 11.2352 44.817 7.35981C46.9511 3.82464 50.1141 1.73788 54.0679 0.905123C56.9578 0.295945 59.8445 0.321868 62.6804 1.26804C66.288 2.47343 68.7079 4.98143 70.2005 8.48096C70.5021 9.18734 70.7276 9.92937 71.0166 10.7394L71.023 10.7459Z"
            fill="#34363C" />
        <path
            d="M75.812 30.7579V1.22571C75.9549 1.22571 76.0883 1.22571 76.2217 1.22571C79.3847 1.22571 82.5477 1.19007 85.7107 1.23543C88.6006 1.27756 91.4174 1.7474 94.0501 3.06297C97.4672 4.77061 99.6298 7.53135 100.529 11.2804C101.357 14.7345 101.275 18.2017 100.211 21.5943C98.8835 25.8293 95.9936 28.4767 91.8938 29.8149C89.909 30.463 87.8606 30.7546 85.7837 30.7708C82.5826 30.7967 79.3815 30.7773 76.1804 30.7773C76.0692 30.7773 75.9549 30.7643 75.812 30.7579ZM82.824 24.7082C84.4468 24.705 86.0346 24.786 87.6002 24.4587C90.252 23.9046 92.2495 22.508 93.2212 19.8413C93.8659 18.0721 93.958 16.2348 93.7929 14.3684C93.4816 10.8591 91.4397 8.44835 88.0734 7.64476C86.3871 7.24296 84.6722 7.29805 82.9605 7.30453C82.9161 7.30453 82.8716 7.34017 82.8208 7.35961V24.7114L82.824 24.7082Z"
            fill="#34363C" />
        <path d="M137.5 24.7083V30.7483H117.747V1.24854H124.721V24.7083H137.5Z" fill="#34363C" />
        <path d="M112.094 30.7517H105.136V1.25195H112.094V30.7517Z" fill="#34363C" />
        <path d="M7.24203 13.0562H0.5V18.9697H7.24203V13.0562Z" fill="#ADD197" />
        <path d="M7.24203 1.23242H0.5V7.14598H7.24203V1.23242Z" fill="#F2BF5D" />
        <path d="M7.24203 24.8799H0.5V30.7934H7.24203V24.8799Z" fill="#97CED1" />
        <path d="M7.24203 7.146H0.5V13.0596H7.24203V7.146Z" fill="#51A1CD" />
        <path d="M7.24203 18.9697H0.5V24.8833H7.24203V18.9697Z" fill="#F25D5D" />
    </g>
    <defs>
        <clipPath id="clip0_812_7180">
            <rect width="137" height="31" fill="white" transform="translate(0.5 0.5)" />
        </clipPath>
    </defs>
</svg>